<?xml version="1.0" encoding="UTF-8"?> <svg xmlns="http://www.w3.org/2000/svg" xmlns:xlink="http://www.w3.org/1999/xlink" width="597" height="170" xml:space="preserve" overflow="hidden"><g transform="translate(-96 -96)"><path d="M210.021 141.846C205.457 140.728 203.036 135.699 204.899 131.228 206.389 127.689 207.693 127.317 218.31 126.665 225.668 126.292 227.717 125.919 228.555 124.616 229.3 123.405 229.3 122.473 228.555 121.356 227.717 119.959 225.761 119.679 216.168 119.4L204.899 119.121 204.899 116.885 204.899 114.557 216.075 114.557C222.222 114.557 228.183 115.023 229.393 115.581 234.05 117.724 235.168 124.429 231.442 128.062 229.393 130.204 228.462 130.39 220.545 130.39 210.859 130.39 209.276 130.949 209.742 134.209 210.021 136.444 210.207 136.444 221.011 136.723 227.158 136.816 232.001 137.375 232.001 137.841 232.56 142.218 232.932 142.032 222.129 142.125 216.541 142.218 211.046 142.125 210.021 141.846Z" transform="matrix(1 0 0 -1.00192 96 265.917)"></path><path d="M238.148 141.939C237.775 141.566 237.496 135.233 237.496 127.875L237.496 114.557 250.069 114.557 262.643 114.557 262.643 116.885 262.643 119.214 252.398 119.214 242.153 119.214 242.153 128.062 242.153 136.816 252.212 137.096C262.177 137.375 262.177 137.375 262.177 139.704L262.177 142.032 250.442 142.311C244.016 142.405 238.521 142.218 238.148 141.939Z" transform="matrix(1 0 0 -1.00192 96 265.917)"></path><path d="M266.927 141.101C266.648 140.262 266.368 133.929 266.368 127.037L266.368 114.557 268.697 114.557 271.025 114.557 271.025 124.522 271.025 134.581 281.177 124.429C294.681 110.925 294.681 110.925 295.054 128.807L295.333 142.498 293.005 142.498C290.677 142.498 290.677 142.498 290.397 132.532L290.118 122.473 280.059 132.253C274.471 137.655 269.442 142.125 268.79 142.311 268.045 142.498 267.3 141.939 266.927 141.101Z" transform="matrix(1 0 0 -1.00192 96 265.917)"></path><path d="M305.02 141.566C301.387 140.449 299.897 138.307 299.897 134.022 299.897 128.341 302.877 126.665 313.029 126.665 317.5 126.665 321.784 126.385 322.622 126.106 324.578 125.361 324.578 120.518 322.622 119.773 321.784 119.493 316.382 119.214 310.514 119.214L299.897 119.214 299.897 116.792 299.897 114.371 312.563 114.743C324.578 115.023 325.323 115.116 327 117.258 329.514 120.331 329.328 125.826 326.627 128.341 324.671 130.111 323.46 130.39 315.544 130.39 306.137 130.39 304.088 131.228 304.74 134.767 305.02 136.258 306.417 136.537 316.196 136.91 327.372 137.375 327.372 137.375 327.372 139.704 327.372 142.032 327.372 142.032 317.593 142.218 312.191 142.311 306.603 142.032 305.02 141.566Z" transform="matrix(1 0 0 -1.00192 96 265.917)"></path><path d="M341.994 141.659C330.352 138.679 329.048 121.635 339.945 116.233 342.087 115.116 345.347 114.557 349.259 114.557 357.269 114.557 361.18 116.513 363.974 122.008 367.514 128.9 365.465 137.096 359.318 140.262 356.058 141.939 346.185 142.684 341.994 141.659ZM358.293 134.861C360.994 131.787 361.646 128.993 360.435 125.268 358.852 120.611 355.22 118.934 347.583 119.4 342.46 119.773 341.249 120.145 339.387 122.38 336.779 125.268 336.499 129.272 338.548 133.184 340.318 136.537 340.877 136.723 349.352 136.816 355.499 136.91 356.617 136.63 358.293 134.861Z" transform="matrix(1 0 0 -1.00192 96 265.917)"></path><path d="M370.494 141.939C370.028 141.566 369.749 135.233 369.749 127.875L369.749 114.557 372.077 114.557 374.406 114.557 374.406 125.733 374.406 136.91 383.533 136.91C393.592 136.91 394.895 136.351 394.895 131.787 394.895 127.41 393.498 126.665 385.396 126.665 378.224 126.665 378.131 126.665 378.131 124.336 378.131 122.101 378.41 122.008 383.626 122.008 388.935 122.008 389.307 121.822 392.381 118.282 395.082 115.116 396.106 114.557 399.18 114.557L402.719 114.557 398.714 118.655 394.709 122.66 397.131 125.081C401.136 129.086 400.204 137.655 395.547 140.635 393.312 142.032 371.705 143.243 370.494 141.939Z" transform="matrix(1 0 0 -1.00192 96 265.917)"></path><path d="M405.14 128.527 405.14 114.557 407.469 114.557 409.797 114.557 409.797 128.527 409.797 142.498 407.469 142.498 405.14 142.498 405.14 128.527Z" transform="matrix(1 0 0 -1.00192 96 265.917)"></path><path d="M421.16 140.914C420.601 139.983 418.924 134.302 417.248 128.155 415.665 122.101 414.081 116.513 413.802 115.861 413.429 114.929 414.081 114.557 415.758 114.557 417.9 114.557 418.273 115.209 419.67 119.959 420.508 122.846 421.719 127.13 422.371 129.459L423.581 133.65 426.096 128.062C427.493 124.988 429.356 120.704 430.287 118.562 433.174 111.949 435.037 112.974 439.694 123.871 441.836 128.993 443.978 132.905 444.257 132.532 444.63 132.16 445.934 127.875 447.051 123.219 449.007 115.395 449.473 114.557 451.429 114.557 454.223 114.557 454.13 115.209 450.032 129.924 445.561 145.757 444.723 145.851 438.762 132.066 436.434 126.571 434.292 122.008 434.012 122.008 433.733 122.008 431.591 126.571 429.263 132.066 424.978 142.032 422.929 144.267 421.16 140.914Z" transform="matrix(1 0 0 -1.00192 96 265.917)"></path><path d="M465.213 141.659C458.507 139.983 455.434 135.885 455.434 128.527 455.434 118.655 461.301 114.091 473.316 114.65 483.747 115.209 488.031 119.4 488.031 128.9 488.031 133.557 487.659 134.581 484.958 137.468 480.953 141.846 473.036 143.522 465.213 141.659ZM481.791 134.022C484.399 130.763 483.84 125.174 480.673 121.915 478.159 119.493 477.321 119.214 471.919 119.214 466.703 119.214 465.399 119.586 462.978 121.635 460.556 123.591 460.09 124.709 460.09 128.062 460.09 133.836 462.326 136.258 468.566 136.91 475.085 137.561 479.742 136.537 481.791 134.022Z" transform="matrix(1 0 0 -1.00192 96 265.917)"></path><path d="M490.825 139.704C490.825 136.91 490.918 136.91 495.948 136.91L501.07 136.91 501.07 125.733 501.07 114.557 503.399 114.557 505.727 114.557 505.727 125.733 505.727 136.91 510.849 136.91C515.879 136.91 515.972 136.91 515.972 139.704L515.972 142.498 503.399 142.498 490.825 142.498 490.825 139.704Z" transform="matrix(1 0 0 -1.00192 96 265.917)"></path><path d="M527.707 141.473C521.281 139.89 517.835 135.233 517.835 128.248 517.835 119.773 524.168 114.557 534.599 114.557 542.609 114.557 546.52 116.513 549.315 122.008 552.854 128.9 550.805 137.096 544.751 140.262 541.305 142.032 532.364 142.684 527.707 141.473ZM543.633 134.861C546.334 131.787 546.986 128.993 545.775 125.268 544.192 120.611 540.56 118.934 532.923 119.4 527.8 119.773 526.589 120.145 524.727 122.38 522.119 125.268 521.839 129.272 523.888 133.184 525.658 136.537 526.217 136.723 534.692 136.816 540.839 136.91 541.957 136.63 543.633 134.861Z" transform="matrix(1 0 0 -1.00192 96 265.917)"></path><path d="M555.834 141.939C555.368 141.566 555.089 135.233 555.089 127.875L555.089 114.557 557.417 114.557 559.746 114.557 559.746 125.733 559.746 136.91 568.873 136.91C578.932 136.91 580.236 136.351 580.236 131.787 580.236 127.41 578.839 126.665 570.736 126.665 563.564 126.665 563.471 126.665 563.471 124.336 563.471 122.101 563.751 122.008 568.966 122.008 574.275 122.008 574.647 121.822 577.721 118.282 580.422 115.116 581.446 114.557 584.52 114.557L588.059 114.557 584.054 118.655 580.049 122.66 582.471 125.081C586.476 129.086 585.544 137.655 580.888 140.635 578.652 142.032 557.045 143.243 555.834 141.939Z" transform="matrix(1 0 0 -1.00192 96 265.917)"></path><path d="M136.91 130.576 136.91 120.611 144.174 113.346 151.439 106.082 161.218 106.361 170.904 106.64 171.183 116.327 171.463 126.106 164.198 133.37 156.934 140.635 146.968 140.635 136.91 140.635 136.91 130.576Z" transform="matrix(1 0 0 -1.00192 96 265.917)"></path><path d="M126.478 130.669 121.076 125.174 121.076 115.395 121.076 105.709 128.341 98.4445 135.512 91.273 145.292 91.273 155.071 91.273 176.306 70.0381 197.448 48.8963 197.448 39.117 197.448 29.3378 204.712 22.0732 211.884 14.9017 222.129 14.9017 232.467 14.9017 239.173 21.7006 245.878 28.4064 245.878 38.6513 245.878 48.8963 238.614 56.1608 231.442 63.3323 221.663 63.3323 211.884 63.3323 192.325 82.8908 172.767 102.449 160.659 102.449 148.551 102.449 140.449 110.645 132.346 118.748 132.066 127.41 131.787 136.071 126.478 130.669ZM228.834 46.3816C231.535 43.7738 231.908 42.8424 231.908 38.7445 231.908 34.9259 231.442 33.622 229.393 31.4799 227.344 29.3378 226.134 28.8721 222.222 28.8721 218.217 28.8721 217.099 29.3378 214.492 31.8524 211.977 34.2739 211.418 35.5778 211.418 38.5582 211.418 41.6317 212.07 42.9356 214.864 45.8228 217.751 48.71 218.962 49.3619 222.036 49.3619 224.923 49.3619 226.413 48.71 228.834 46.3816Z" transform="matrix(1 0 0 -1.00192 96 265.917)"></path><path d="M245.878 128.527C245.878 126.851 246.53 126.665 253.795 126.665 261.059 126.665 261.711 126.851 261.711 128.527 261.711 130.204 261.059 130.39 253.795 130.39 246.53 130.39 245.878 130.204 245.878 128.527Z" transform="matrix(1 0 0 -1.00192 96 265.917)"></path><path d="M93.6014 81.9594C80.283 71.7145 69.1067 63.5186 68.7342 63.6117 68.3616 63.7048 59.9794 71.6214 50.0139 81.2143L31.9456 98.5376 18.1615 84.7535 4.37738 70.9694 31.7593 42.9356 59.1412 14.9017 68.9204 14.9017 78.6997 14.9017 104.312 50.3864C118.376 69.9449 130.297 86.5231 130.763 87.2682 131.321 88.2927 130.017 90.2485 125.64 94.6259 122.38 97.8856 119.307 100.587 118.748 100.587 118.282 100.493 106.92 92.1112 93.6014 81.9594Z" transform="matrix(1 0 0 -1.00192 96 265.917)"></path><path d="M231.256 82.7045C221.849 73.3909 214.212 65.3813 214.212 65.0087 214.212 64.6362 218.124 64.2636 222.874 64.2636L231.442 64.2636 248.486 81.3075C257.8 90.6211 265.437 98.6307 265.437 99.0033 265.437 99.3758 261.618 99.6552 256.868 99.6552L248.3 99.6552 231.256 82.7045Z" transform="matrix(1 0 0 -1.00192 96 265.917)"></path><path d="M250.535 81.4938 233.305 64.2636 240.29 57.2785 247.275 50.2933 264.692 67.7097 282.201 85.2192 275.495 91.925C271.77 95.6504 268.51 98.7239 268.231 98.7239 267.951 98.7239 260.035 90.9936 250.535 81.4938Z" transform="matrix(1 0 0 -1.00192 96 265.917)"></path><path d="M303.436 96.3023C302.97 95.9298 302.691 89.5966 302.691 82.2388L302.691 68.9204 314.892 68.9204 327.093 68.9204 329.794 71.6214C333.053 74.8811 333.426 79.1654 330.632 81.7732 328.955 83.3565 328.862 83.6359 330.166 84.7535 331.004 85.4055 331.563 87.4544 331.563 89.5034 331.563 95.1847 328.955 96.3023 315.264 96.6749 309.117 96.8612 303.809 96.6749 303.436 96.3023ZM326.72 88.5721C327.186 85.4986 325.602 84.7535 317.872 84.7535 311.725 84.7535 311.073 84.5672 311.073 82.8908 311.073 81.2143 311.725 81.0281 318.338 81.0281 325.789 81.0281 327.838 80.1899 327.838 77.1164 327.838 74.5086 324.764 73.5772 315.823 73.5772L307.348 73.5772 307.348 82.4251 307.348 91.3661 316.941 91.0867C326.161 90.8073 326.441 90.7142 326.72 88.5721Z" transform="matrix(1 0 0 -1.00192 96 265.917)"></path><path d="M337.151 82.8908 337.151 68.9204 339.48 68.9204 341.808 68.9204 341.808 82.8908 341.808 96.8612 339.48 96.8612 337.151 96.8612 337.151 82.8908Z" transform="matrix(1 0 0 -1.00192 96 265.917)"></path><path d="M356.244 96.0229C349.538 94.3465 346.465 90.2485 346.465 82.8908 346.465 73.4841 351.867 68.9204 362.857 68.9204 373.754 68.9204 379.062 73.5772 379.062 83.2633 379.062 87.9201 378.69 88.9446 376.082 91.8318 371.891 96.3023 364.254 97.8856 356.244 96.0229ZM372.077 88.9446C375.523 85.5917 375.337 79.9104 371.705 76.2782 369.19 73.8566 368.352 73.5772 362.764 73.5772 357.176 73.5772 356.337 73.8566 353.823 76.2782 350.19 79.9104 350.004 85.5917 353.45 88.9446 355.406 90.9936 356.524 91.273 362.764 91.273 369.004 91.273 370.121 90.9936 372.077 88.9446Z" transform="matrix(1 0 0 -1.00192 96 265.917)"></path><path d="M384.371 96.2092C383.999 95.9298 383.719 89.5966 383.719 82.2388L383.719 68.9204 386.048 68.9204 388.376 68.9204 388.376 78.886 388.376 88.9446 398.435 78.886C403.93 73.3909 409.145 68.9204 410.077 68.9204 411.474 68.9204 411.66 70.2243 411.66 82.8908 411.66 96.2092 411.567 96.8612 409.797 96.8612 408.028 96.8612 407.934 96.2092 407.934 87.0819 407.934 81.68 407.655 77.3027 407.189 77.3027 406.817 77.3027 402.16 81.68 396.758 87.0819 387.445 96.3955 385.768 97.6994 384.371 96.2092Z" transform="matrix(1 0 0 -1.00192 96 265.917)"></path><path d="M417.248 82.9839 417.248 68.9204 419.576 68.9204 421.998 68.9204 421.719 82.7045C421.439 96.1161 421.439 96.3955 419.39 96.6749 417.248 96.9543 417.248 96.9543 417.248 82.9839Z" transform="matrix(1 0 0 -1.00192 96 265.917)"></path><path d="M436.341 96.0229C429.635 94.3465 426.562 90.2485 426.562 82.8908 426.562 72.739 431.684 68.9204 445.654 68.9204 454.502 68.9204 454.502 68.9204 454.502 71.2488 454.502 73.5772 454.502 73.5772 445.748 73.5772 437.645 73.5772 436.713 73.7635 434.106 75.9987 431.684 77.9546 431.218 79.0722 431.218 82.4251 431.218 84.9398 431.87 87.175 432.988 88.5721 434.571 90.6211 435.689 90.8073 444.444 91.273 453.944 91.7387 454.037 91.7387 454.037 94.0671 454.037 96.3023 453.85 96.3955 446.586 96.5817 442.488 96.6749 437.924 96.3955 436.341 96.0229Z" transform="matrix(1 0 0 -1.00192 96 265.917)"></path><path d="M463.35 95.9298C459.718 94.8122 458.228 92.67 458.228 88.3858 458.228 82.7045 461.208 81.0281 471.36 81.0281 475.83 81.0281 480.115 80.7487 480.953 80.4693 482.909 79.7242 482.909 74.8811 480.953 74.136 480.115 73.8566 474.713 73.5772 468.845 73.5772L458.228 73.5772 458.228 71.1557 458.228 68.7342 470.894 69.1067C482.909 69.3861 483.654 69.4792 485.33 71.6214 488.031 74.9743 487.659 80.3761 484.678 82.7977 482.536 84.4741 480.86 84.7535 473.595 84.7535 464.561 84.7535 462.419 85.6849 463.071 89.1309 463.35 90.6211 464.747 90.9005 474.526 91.273 485.703 91.7387 485.703 91.7387 485.703 94.0671 485.703 96.3955 485.703 96.3955 475.924 96.5817 470.522 96.6749 464.934 96.3955 463.35 95.9298Z" transform="matrix(1 0 0 -1.00192 96 265.917)"></path><path d="M264.785 65.0087 247.741 47.9649 247.741 39.117 247.741 30.2691 264.971 47.4992 282.294 64.8225 282.015 73.3909 281.736 81.9594 264.785 65.0087Z" transform="matrix(1 0 0 -1.00192 96 265.917)"></path></g></svg> 